<mxfile host="app.diagrams.net" modified="2022-03-15T15:50:26.244Z" agent="5.0 (Windows NT 10.0; Win64; x64) AppleWebKit/537.36 (KHTML, like Gecko) Chrome/86.0.4240.75 Safari/537.36" etag="fMjmUYP847lS7gOSlimv" version="17.1.2" type="github">
  <diagram id="jHQqiM0O94o_VZu9XDJx" name="第 1 页">
    <mxGraphModel dx="1038" dy="548" grid="1" gridSize="10" guides="1" tooltips="1" connect="1" arrows="1" fold="1" page="1" pageScale="1" pageWidth="1169" pageHeight="1654" math="0" shadow="0">
      <root>
        <mxCell id="0" />
        <mxCell id="1" parent="0" />
        <mxCell id="iooVl8B-sPUn75MiQLJR-3" value="" style="edgeStyle=orthogonalEdgeStyle;rounded=0;orthogonalLoop=1;jettySize=auto;html=1;entryX=0.5;entryY=0;entryDx=0;entryDy=0;curved=1;" parent="1" source="iooVl8B-sPUn75MiQLJR-1" target="DvpTJYadtBClGwsSLPrm-2" edge="1">
          <mxGeometry relative="1" as="geometry">
            <mxPoint x="85" y="190" as="targetPoint" />
          </mxGeometry>
        </mxCell>
        <mxCell id="iooVl8B-sPUn75MiQLJR-1" value="zookeeper启动(主流程)" style="rounded=1;whiteSpace=wrap;html=1;" parent="1" vertex="1">
          <mxGeometry x="70" y="80" width="150" height="50" as="geometry" />
        </mxCell>
        <mxCell id="DvpTJYadtBClGwsSLPrm-1" value="https://segmentfault.com/a/1190000040777791" style="rounded=1;whiteSpace=wrap;html=1;" vertex="1" parent="1">
          <mxGeometry x="300" y="20" width="280" height="20" as="geometry" />
        </mxCell>
        <mxCell id="DvpTJYadtBClGwsSLPrm-6" value="" style="edgeStyle=orthogonalEdgeStyle;rounded=0;orthogonalLoop=1;jettySize=auto;html=1;fontColor=#000000;" edge="1" parent="1" source="DvpTJYadtBClGwsSLPrm-2" target="DvpTJYadtBClGwsSLPrm-4">
          <mxGeometry relative="1" as="geometry" />
        </mxCell>
        <mxCell id="DvpTJYadtBClGwsSLPrm-2" value="&lt;font color=&quot;#000000&quot;&gt;QuorumPeerMain&lt;/font&gt;" style="rounded=1;whiteSpace=wrap;html=1;labelBackgroundColor=none;fontColor=#FFFFFF;strokeColor=default;" vertex="1" parent="1">
          <mxGeometry x="67.5" y="180" width="155" height="30" as="geometry" />
        </mxCell>
        <mxCell id="DvpTJYadtBClGwsSLPrm-8" value="" style="edgeStyle=orthogonalEdgeStyle;rounded=0;orthogonalLoop=1;jettySize=auto;html=1;fontColor=#000000;" edge="1" parent="1" source="DvpTJYadtBClGwsSLPrm-4" target="DvpTJYadtBClGwsSLPrm-7">
          <mxGeometry relative="1" as="geometry" />
        </mxCell>
        <mxCell id="DvpTJYadtBClGwsSLPrm-4" value="main.initializeAndRun" style="rounded=1;whiteSpace=wrap;html=1;labelBackgroundColor=none;fontColor=#000000;strokeColor=default;" vertex="1" parent="1">
          <mxGeometry x="70" y="250" width="150" height="30" as="geometry" />
        </mxCell>
        <mxCell id="DvpTJYadtBClGwsSLPrm-10" value="" style="edgeStyle=orthogonalEdgeStyle;rounded=0;orthogonalLoop=1;jettySize=auto;html=1;fontColor=#000000;" edge="1" parent="1" source="DvpTJYadtBClGwsSLPrm-7" target="DvpTJYadtBClGwsSLPrm-9">
          <mxGeometry relative="1" as="geometry" />
        </mxCell>
        <mxCell id="DvpTJYadtBClGwsSLPrm-12" value="" style="edgeStyle=orthogonalEdgeStyle;rounded=0;orthogonalLoop=1;jettySize=auto;html=1;fontColor=#000000;" edge="1" parent="1" source="DvpTJYadtBClGwsSLPrm-7" target="DvpTJYadtBClGwsSLPrm-11">
          <mxGeometry relative="1" as="geometry" />
        </mxCell>
        <mxCell id="DvpTJYadtBClGwsSLPrm-7" value="runFromConfig(config)" style="whiteSpace=wrap;html=1;fontColor=#000000;rounded=1;labelBackgroundColor=none;" vertex="1" parent="1">
          <mxGeometry x="62.5" y="330" width="165" height="25" as="geometry" />
        </mxCell>
        <mxCell id="DvpTJYadtBClGwsSLPrm-9" value="集群分布式" style="ellipse;whiteSpace=wrap;html=1;fontColor=#000000;rounded=1;labelBackgroundColor=none;" vertex="1" parent="1">
          <mxGeometry x="162.5" y="290" width="60" height="30" as="geometry" />
        </mxCell>
        <mxCell id="DvpTJYadtBClGwsSLPrm-11" value="quorumPeer初始化" style="whiteSpace=wrap;html=1;fontColor=#000000;rounded=1;labelBackgroundColor=none;" vertex="1" parent="1">
          <mxGeometry x="85" y="417.5" width="120" height="60" as="geometry" />
        </mxCell>
        <mxCell id="DvpTJYadtBClGwsSLPrm-13" value="quorumPeer.start()" style="whiteSpace=wrap;html=1;fontColor=#000000;rounded=1;labelBackgroundColor=none;" vertex="1" parent="1">
          <mxGeometry x="300" y="417.5" width="120" height="60" as="geometry" />
        </mxCell>
        <mxCell id="DvpTJYadtBClGwsSLPrm-18" value="" style="endArrow=classic;html=1;rounded=0;fontColor=#000000;exitX=1;exitY=0.5;exitDx=0;exitDy=0;entryX=0;entryY=0.5;entryDx=0;entryDy=0;" edge="1" parent="1" source="DvpTJYadtBClGwsSLPrm-11" target="DvpTJYadtBClGwsSLPrm-13">
          <mxGeometry relative="1" as="geometry">
            <mxPoint x="260" y="447" as="sourcePoint" />
            <mxPoint x="360" y="447" as="targetPoint" />
          </mxGeometry>
        </mxCell>
        <mxCell id="DvpTJYadtBClGwsSLPrm-19" value="启动" style="edgeLabel;resizable=0;html=1;align=center;verticalAlign=middle;labelBackgroundColor=none;fontColor=#000000;strokeColor=default;" connectable="0" vertex="1" parent="DvpTJYadtBClGwsSLPrm-18">
          <mxGeometry relative="1" as="geometry" />
        </mxCell>
      </root>
    </mxGraphModel>
  </diagram>
</mxfile>
